<?xml version="1.0" encoding="UTF-8"?>
<svg id="Layer_1_copy_2" data-name="Layer 1 copy 2" xmlns="http://www.w3.org/2000/svg" viewBox="0 0 913.83 133.28">
  <defs>
    <style>
      .cls-1 {
        fill: #fff;
      }
    </style>
  </defs>
  <path class="cls-1" d="M74.37,3.2c-4.27-4.27-11.19-4.27-15.46,0L3.2,58.91c-4.27,4.27-4.27,11.19,0,15.46l55.71,55.71c4.27,4.27,11.19,4.27,15.46,0,4.27-4.27,4.27-11.19,0-15.46l-47.98-47.98,47.98-47.98c4.27-4.27,4.27-11.19,0-15.46Z"/>
  <path class="cls-1" d="M823.56.85h0c-5.69-2.01-11.94.97-13.95,6.66l-39.24,110.97c-2.01,5.69.97,11.94,6.66,13.95,5.69,2.01,11.94-.97,13.95-6.66l39.24-110.97c2.01-5.69-.97-11.94-6.66-13.95Z"/>
  <path class="cls-1" d="M910.63,58.91l-55.71-55.71c-4.27-4.27-11.19-4.27-15.46,0-4.27,4.27-4.27,11.19,0,15.46l47.98,47.98-47.98,47.98c-4.27,4.27-4.27,11.19,0,15.46s11.19,4.27,15.46,0l55.71-55.71c4.27-4.27,4.27-11.19,0-15.46Z"/>
  <path class="cls-1" d="M214.44,90.69c-1.66-1.57-3.61-2.77-5.83-3.61-2.22-.84-4.66-1.26-7.29-1.26h-13.99v34.91h14.09c2.6,0,5.02-.43,7.24-1.29,2.23-.86,4.16-2.06,5.81-3.61,1.65-1.55,2.92-3.39,3.83-5.54.91-2.14,1.36-4.48,1.36-7.02s-.45-4.92-1.36-7.05c-.91-2.13-2.19-3.97-3.86-5.54ZM210.41,108.96c-.86,1.62-2.08,2.84-3.66,3.68-1.58.84-3.43,1.26-5.54,1.26h-6.13v-21.31h6.13c2.11,0,3.95.43,5.51,1.29,1.57.86,2.79,2.08,3.66,3.66.87,1.58,1.31,3.48,1.31,5.69s-.43,4.12-1.29,5.74Z"/>
  <path class="cls-1" d="M137.06,60.42c-2.27.97-4.93,1.45-8,1.45-2.61,0-5.01-.45-7.19-1.36-2.18-.91-4.06-2.18-5.62-3.83-1.56-1.65-2.78-3.63-3.66-5.96-.88-2.33-1.32-4.91-1.32-7.74s.44-5.33,1.32-7.66c.88-2.33,2.1-4.31,3.66-5.96,1.56-1.65,3.43-2.91,5.62-3.79,2.18-.88,4.58-1.32,7.19-1.32,2.95,0,5.54.48,7.79,1.45,2.24.96,4.15,2.3,5.74,4l8.93-9.02c-2.78-2.67-6.03-4.77-9.74-6.3-3.72-1.53-7.96-2.3-12.72-2.3-4.48,0-8.64.78-12.46,2.34-3.83,1.56-7.16,3.73-10,6.51-2.84,2.78-5.05,6.06-6.64,9.83-1.59,3.77-2.38,7.84-2.38,12.21s.79,8.44,2.38,12.21c1.59,3.77,3.81,7.08,6.68,9.91,2.86,2.84,6.21,5.03,10.04,6.59,3.83,1.56,7.98,2.34,12.46,2.34,4.88,0,9.17-.77,12.89-2.3,3.71-1.53,7.02-3.63,9.91-6.3l-9.02-9.02c-1.65,1.7-3.6,3.03-5.87,4Z"/>
  <path class="cls-1" d="M207.93,65.15c2.84-2.81,5.05-6.1,6.64-9.87,1.59-3.77,2.38-7.84,2.38-12.21s-.8-8.52-2.38-12.3c-1.59-3.77-3.82-7.06-6.68-9.87-2.87-2.81-6.21-4.99-10.04-6.55-3.83-1.56-7.98-2.34-12.47-2.34s-8.72.78-12.55,2.34c-3.83,1.56-7.16,3.74-10,6.55-2.84,2.81-5.05,6.08-6.64,9.83-1.59,3.74-2.38,7.83-2.38,12.25s.79,8.44,2.38,12.21c1.59,3.77,3.83,7.08,6.72,9.91,2.89,2.84,6.25,5.05,10.08,6.64,3.83,1.59,8.01,2.38,12.55,2.38s8.55-.79,12.38-2.38c3.83-1.59,7.16-3.79,10-6.59ZM185.38,61.96c-2.67,0-5.11-.45-7.32-1.36-2.21-.91-4.1-2.2-5.66-3.87-1.56-1.67-2.77-3.67-3.62-6-.85-2.33-1.28-4.91-1.28-7.74,0-3.8.74-7.1,2.21-9.91,1.47-2.81,3.56-4.99,6.25-6.55,2.69-1.56,5.83-2.34,9.4-2.34,2.67,0,5.09.44,7.27,1.32,2.18.88,4.07,2.16,5.66,3.83,1.59,1.67,2.81,3.66,3.66,5.96.85,2.3,1.28,4.86,1.28,7.7,0,3.74-.74,7.05-2.21,9.91-1.48,2.86-3.56,5.09-6.25,6.68-2.7,1.59-5.83,2.38-9.4,2.38Z"/>
  <path class="cls-1" d="M280.67,43.07c0-4.42-.78-8.47-2.34-12.13-1.56-3.66-3.77-6.83-6.64-9.53-2.87-2.69-6.21-4.77-10.04-6.21-3.83-1.45-8.01-2.17-12.55-2.17h-24.08v60.07h24.25c4.48,0,8.64-.74,12.47-2.21,3.83-1.47,7.16-3.54,10-6.21,2.84-2.67,5.03-5.84,6.59-9.53,1.56-3.69,2.34-7.71,2.34-12.08ZM264.76,52.85c-1.48,2.78-3.57,4.89-6.3,6.34-2.72,1.45-5.9,2.17-9.53,2.17h-10.55V24.69h10.55c3.63,0,6.79.74,9.49,2.21,2.69,1.48,4.79,3.57,6.3,6.3,1.5,2.72,2.25,5.99,2.25,9.79s-.74,7.09-2.21,9.87Z"/>
  <polygon class="cls-1" points="298.96 13.03 288.75 13.03 288.75 73.1 298.96 73.1 302.11 73.1 331.89 73.1 331.89 61.53 302.11 61.53 302.11 48 331.89 48 331.89 36.85 302.11 36.85 302.11 24.52 331.89 24.52 331.89 13.03 302.11 13.03 298.96 13.03"/>
  <path class="cls-1" d="M387.52,60.42c-2.27.97-4.93,1.45-8,1.45-2.61,0-5.01-.45-7.19-1.36-2.18-.91-4.06-2.18-5.62-3.83-1.56-1.65-2.78-3.63-3.66-5.96-.88-2.33-1.32-4.91-1.32-7.74s.44-5.33,1.32-7.66c.88-2.33,2.1-4.31,3.66-5.96,1.56-1.65,3.43-2.91,5.62-3.79,2.18-.88,4.58-1.32,7.19-1.32,2.95,0,5.54.48,7.79,1.45,2.24.96,4.15,2.3,5.74,4l8.93-9.02c-2.78-2.67-6.03-4.77-9.74-6.3-3.72-1.53-7.96-2.3-12.72-2.3-4.48,0-8.64.78-12.46,2.34-3.83,1.56-7.16,3.73-10,6.51-2.84,2.78-5.05,6.06-6.64,9.83-1.59,3.77-2.38,7.84-2.38,12.21s.79,8.44,2.38,12.21c1.59,3.77,3.81,7.08,6.68,9.91,2.86,2.84,6.21,5.03,10.04,6.59,3.83,1.56,7.98,2.34,12.46,2.34,4.88,0,9.17-.77,12.89-2.3,3.71-1.53,7.02-3.63,9.91-6.3l-9.02-9.02c-1.65,1.7-3.6,3.03-5.87,4Z"/>
  <path class="cls-1" d="M445.37,46.13c3.06-1.47,5.45-3.53,7.15-6.17,1.7-2.64,2.55-5.71,2.55-9.23s-.85-6.52-2.55-9.19c-1.7-2.67-4.06-4.75-7.06-6.25-3.01-1.5-6.5-2.25-10.47-2.25h-24.5v60.07h13.36v-24.76h1.4l17.92,24.76h15.83l-19.25-25.2c2.04-.36,3.93-.95,5.64-1.77ZM433.37,38.47h-9.53v-15.06h9.61c2.67,0,4.71.71,6.13,2.13,1.42,1.42,2.13,3.21,2.13,5.36,0,2.33-.72,4.17-2.17,5.53-1.45,1.36-3.5,2.04-6.17,2.04Z"/>
  <path class="cls-1" d="M490.89,13.03l-23.82,60.07h13.87l4-10.89h23.55l3.94,10.89h14.12l-23.57-60.07h-12.08ZM488.92,51.32l7.86-21.42,7.75,21.42h-15.61Z"/>
  <polygon class="cls-1" points="576.09 38.05 547.84 38.05 547.84 24.52 576.09 24.52 576.09 13.03 547.84 13.03 544.69 13.03 534.48 13.03 534.48 73.1 547.84 73.1 547.84 49.53 576.09 49.53 576.09 38.05"/>
  <polygon class="cls-1" points="584.17 24.69 602.97 24.69 602.97 73.1 616.33 73.1 616.33 24.69 635.13 24.69 635.13 13.03 584.17 13.03 584.17 24.69"/>
  <polygon class="cls-1" points="653.42 13.03 643.21 13.03 643.21 73.1 653.42 73.1 656.57 73.1 686.35 73.1 686.35 61.53 656.57 61.53 656.57 48 686.35 48 686.35 36.85 656.57 36.85 656.57 24.52 686.35 24.52 686.35 13.03 656.57 13.03 653.42 13.03"/>
  <path class="cls-1" d="M741.09,21.41c-2.87-2.69-6.21-4.77-10.04-6.21s-8.01-2.17-12.55-2.17h-24.08v60.07h24.25c4.48,0,8.64-.74,12.47-2.21,3.83-1.47,7.16-3.54,10-6.21,2.84-2.67,5.03-5.84,6.59-9.53,1.56-3.69,2.34-7.71,2.34-12.08s-.78-8.47-2.34-12.13c-1.56-3.66-3.77-6.83-6.64-9.53ZM734.16,52.85c-1.48,2.78-3.57,4.89-6.3,6.34-2.72,1.45-5.9,2.17-9.53,2.17h-10.55V24.69h10.55c3.63,0,6.79.74,9.49,2.21,2.69,1.48,4.79,3.57,6.3,6.3,1.5,2.72,2.25,5.99,2.25,9.79s-.74,7.09-2.21,9.87Z"/>
  <rect class="cls-1" x="273.58" y="85.82" width="7.76" height="34.91"/>
  <path class="cls-1" d="M351.03,107.53l10.02.16c-.19.71-.42,1.39-.74,1.99-.77,1.47-1.88,2.59-3.31,3.36-1.43.77-3.17,1.16-5.22,1.16s-3.79-.46-5.34-1.38c-1.55-.92-2.77-2.21-3.66-3.86-.89-1.65-1.34-3.56-1.34-5.74s.45-4.08,1.36-5.71c.91-1.63,2.17-2.9,3.78-3.81,1.61-.91,3.44-1.36,5.49-1.36,1.91,0,3.62.36,5.14,1.09,1.52.73,2.83,1.81,3.96,3.26l5.29-5.29c-1.61-1.91-3.65-3.41-6.11-4.5-2.46-1.09-5.18-1.63-8.18-1.63-2.6,0-5.04.45-7.32,1.36-2.27.91-4.26,2.18-5.96,3.81-1.7,1.63-3.02,3.54-3.98,5.71-.96,2.18-1.43,4.53-1.43,7.07s.47,4.9,1.41,7.1c.94,2.19,2.23,4.1,3.88,5.74,1.65,1.63,3.58,2.91,5.81,3.83,2.23.92,4.61,1.38,7.14,1.38,3.46,0,6.52-.72,9.17-2.17s4.73-3.6,6.23-6.45c1.5-2.85,2.25-6.37,2.25-10.56v-1.14h-18.34v6.58Z"/>
  <rect class="cls-1" x="421.52" y="85.82" width="7.76" height="34.91"/>
  <polygon class="cls-1" points="484.56 92.6 495.49 92.6 495.49 120.73 503.25 120.73 503.25 92.6 514.18 92.6 514.18 85.82 484.56 85.82 484.56 92.6"/>
  <path class="cls-1" d="M569.9,85.82l-13.84,34.91h8.06l2.32-6.33h13.68l2.29,6.33h8.21l-13.7-34.91h-7.02ZM568.76,108.07l4.57-12.45,4.5,12.45h-9.07Z"/>
  <polygon class="cls-1" points="643.45 85.82 635.69 85.82 635.69 120.73 641.67 120.73 643.45 120.73 658.93 120.73 658.93 113.91 643.45 113.91 643.45 85.82"/>
</svg>